<svg xmlns="http://www.w3.org/2000/svg"  viewBox="0 0 100 100" width="50px" height="50px"><path fill="#4e6e91" d="M50,20c-16.569,0-30,13.431-30,30s13.431,30,30,30s30-13.431,30-30S66.569,20,50,20z"/><path fill="#f5905f" d="M51.613,52.484l4.22,10.763c0.957,1.26,2.094,2.361,3.45,3.108 c4.238,2.334,9.636,0.988,12.055-3.007l0,0C71.336,63.347,52.096,52.843,51.613,52.484z"/><path fill="#f16e7c" d="M51.613,52.484c0.566,0.219,19.725,10.861,19.725,10.861l0,0c2.418-3.997,0.943-9.127-3.297-11.461 c-1.356-0.746-2.924-1.134-4.546-1.295L51.613,52.484z"/><path fill="#f27c7c" d="M66.378,54.827c-0.51-0.28-1.06-0.52-1.628-0.739c0.182,1.688-0.149,3.441-1.107,5.024 c-0.958,1.583-2.383,2.732-4.007,3.426c0.484,0.359,0.976,0.694,1.486,0.974c5.31,2.924,8.761,2.234,10.214-0.163l0,0l0,0 C72.788,60.949,71.688,57.751,66.378,54.827z"/><path fill="#f7c498" d="M56.168,59.228c1.032,1.207,2.2,2.366,3.471,3.307c1.624-0.694,3.05-1.843,4.007-3.426 c0.958-1.583,1.289-3.335,1.107-5.024c-1.489-0.578-3.127-0.964-4.737-1.212c0.077,1.26-0.21,2.555-0.92,3.73 C58.382,57.778,57.35,58.664,56.168,59.228z"/><path fill="#eaa871" d="M59.638,62.536c-1.27-0.94-2.439-2.101-3.471-3.307c-0.738,0.352-1.535,0.564-2.353,0.653 c0.555,1.161,1.223,2.317,2.02,3.366C57.147,63.278,58.445,63.045,59.638,62.536z"/><path fill="#f599a0" d="M60.013,52.875c1.612,0.25,3.25,0.634,4.737,1.212c-0.133-1.241-0.571-2.428-1.256-3.499 c-1.351-0.134-2.733-0.105-4.064,0.015C59.757,51.325,59.966,52.09,60.013,52.875z"/><path fill="#f7c498" d="M59.093,56.603c0.711-1.175,0.999-2.468,0.92-3.73c-4.331-0.67-8.4-0.389-8.4-0.389 s1.78,3.502,4.555,6.744C57.35,58.664,58.382,57.778,59.093,56.603z"/><path fill="#eaa871" d="M56.168,59.228c-2.775-3.242-4.555-6.744-4.555-6.744c-0.102,0.167-0.138,0.369-0.095,0.575 c0.268,1.261,0.964,4.044,2.295,6.824C54.631,59.792,55.43,59.582,56.168,59.228z"/><path fill="#f599a0" d="M59.43,50.604c-3.19,0.289-6.063,1.107-7.342,1.516c-0.208,0.066-0.373,0.199-0.473,0.365 c0,0,4.07-0.28,8.4,0.389C59.966,52.09,59.757,51.325,59.43,50.604z"/><g><path fill="#ceb743" d="M48.387,52.484c-0.484,0.359-19.723,10.863-19.723,10.863l0,0 c2.419,3.996,7.815,5.342,12.055,3.008c1.356-0.746,2.493-1.848,3.45-3.108L48.387,52.484z"/><path fill="#a0d2a1" d="M48.387,52.484l-11.882-1.896c-1.622,0.16-3.192,0.549-4.546,1.296 c-4.238,2.334-5.715,7.466-3.297,11.463l0,0C28.664,63.347,47.821,52.705,48.387,52.484z"/><path fill="#dce775" d="M38.878,63.512c0.51-0.281,1.002-0.617,1.486-0.974c-1.624-0.694-3.05-1.843-4.007-3.426 c-0.958-1.583-1.289-3.336-1.107-5.024c-0.566,0.219-1.118,0.459-1.628,0.74c-5.31,2.924-6.409,6.121-4.958,8.52l0,0l0,0 C30.116,65.746,33.568,66.436,38.878,63.512z"/><path fill="#fef6aa" d="M39.987,52.875c-1.612,0.25-3.25,0.634-4.737,1.212c-0.182,1.688,0.149,3.441,1.107,5.024 c0.958,1.583,2.383,2.732,4.007,3.426c1.27-0.94,2.439-2.101,3.471-3.307c-1.183-0.566-2.214-1.45-2.926-2.625 C40.197,55.429,39.91,54.135,39.987,52.875z"/><path fill="#dce775" d="M35.249,54.087c1.489-0.578,3.127-0.964,4.737-1.212c0.049-0.786,0.256-1.551,0.583-2.272 c-1.331-0.121-2.716-0.148-4.065-0.015C35.821,51.659,35.383,52.848,35.249,54.087z"/><path fill="#f9e65c" d="M43.834,59.229c-1.032,1.207-2.2,2.367-3.471,3.307c1.193,0.51,2.491,0.743,3.805,0.712 c0.797-1.049,1.463-2.205,2.02-3.366C45.369,59.793,44.571,59.582,43.834,59.229z"/><path fill="#fef6aa" d="M40.908,56.603c0.711,1.175,1.743,2.059,2.926,2.625c2.775-3.242,4.555-6.745,4.555-6.745 s-4.07-0.281-8.401,0.389C39.91,54.135,40.197,55.429,40.908,56.603z"/><path fill="#dce775" d="M39.987,52.875c4.331-0.67,8.401-0.389,8.401-0.389c-0.102-0.167-0.265-0.299-0.473-0.366 c-1.281-0.41-4.154-1.226-7.342-1.517C40.242,51.324,40.036,52.089,39.987,52.875z"/><path fill="#f9e65c" d="M46.187,59.882c1.331-2.78,2.027-5.561,2.295-6.825c0.044-0.206,0.007-0.408-0.095-0.575 c0,0-1.78,3.502-4.555,6.745C44.571,59.582,45.369,59.793,46.187,59.882z"/></g><g><path fill="#78a1d1" d="M50.002,27.5L50.002,27.5L50,49.5c0.195,0,0.391-0.071,0.551-0.212 c1.885-1.657,7.949-7.443,7.949-13.227C58.5,31.333,54.695,27.502,50.002,27.5z"/><path fill="#52bea0" d="M50,27.5C49.998,27.5,49.998,27.5,50,27.5c-4.694,0-8.5,3.833-8.5,8.561 c0,5.784,6.064,11.57,7.949,13.227c0.16,0.14,0.355,0.212,0.551,0.212V27.5z"/><path fill="#9dc4e8" d="M50,27.5L50,27.5L50,27.5c-2.819,0-5.1,2.538-5.1,8.462C44.9,42.037,50,49.5,50,49.5 s5.1-7.463,5.1-13.538C55.1,30.038,52.817,27.5,50,27.5z"/><path fill="#78ccd3" d="M50,27.5c0.923,0,1.6,0.156,1.695,0.178c2.934,0.665,5.105,2.99,5.105,5.745 c0,1.54-0.697,2.945-1.802,3.994C55.015,37.298,50.478,27.551,50,27.5z"/><path fill="#9dc4e8" d="M53.094,43.848C51.666,47.063,50,49.5,50,49.5s-1.666-2.437-3.094-5.652 c0.969,0.372,2.006,0.575,3.094,0.575S52.125,44.22,53.094,43.848z"/><path fill="#78ccd3" d="M45.002,37.417c-1.122-1.032-1.802-2.454-1.802-3.994c0-2.86,2.329-5.246,5.423-5.805 C48.895,27.568,49.713,27.5,50,27.5C47.433,27.805,44.934,36.926,45.002,37.417z"/><path fill="#78ccd3" d="M55.1,35.962c0,0.237,0,0.491-0.034,0.728c0,0.237-0.034,0.491-0.068,0.728 c-1.241,1.185-3.026,1.929-4.998,1.929s-3.757-0.745-4.998-1.929c-0.068-0.491-0.102-0.982-0.102-1.455 c0-5.551,2.006-8.123,4.573-8.428C49.643,27.5,49.83,27.5,50,27.5s0.357,0,0.527,0.034c0.476,0.051,0.952,0.186,1.377,0.423 c0.136,0.068,0.272,0.152,0.408,0.237c0.136,0.085,0.272,0.186,0.408,0.322c0.119,0.102,0.238,0.203,0.34,0.322 c0.391,0.406,0.748,0.914,1.02,1.54c0.085,0.186,0.17,0.372,0.238,0.558c0.085,0.203,0.153,0.406,0.221,0.626 c0.068,0.186,0.119,0.389,0.153,0.592c0.068,0.271,0.136,0.542,0.17,0.829c0.068,0.322,0.119,0.677,0.153,1.032 C55.066,34.608,55.1,35.268,55.1,35.962z"/><path fill="#78a1d1" d="M58.466,36.723c-0.425,5.568-6.103,10.983-7.922,12.574C50.391,49.432,50.204,49.5,50,49.5 c0,0,1.666-2.437,3.094-5.652C56.018,42.697,58.16,39.972,58.466,36.723z"/><path fill="#52bea0" d="M50,49.5c-0.204,0-0.391-0.068-0.544-0.203c-1.819-1.591-7.497-7.006-7.922-12.574 c0.306,3.249,2.448,5.974,5.372,7.125C48.334,47.063,50,49.5,50,49.5z"/></g><g><path fill="#e85654" d="M83.77,59.05c-0.79,2.99-1.97,5.82-3.48,8.44L75.97,65c1.31-2.24,2.33-4.67,3-7.24L83.77,59.05z"/><path fill="#f9e65c" d="M35,75.97l-2.49,4.32c-2.65-1.54-5.1-3.39-7.26-5.54l3.54-3.54C30.64,73.06,32.72,74.66,35,75.97z"/><path fill="#a0d2a1" d="M21.03,57.76l-4.81,1.29C15.45,56.16,15,53.14,15,50h5C20,52.68,20.35,55.28,21.03,57.76z"/><path fill="#fef6aa" d="M28.79,71.21l-3.54,3.54c-2.15-2.16-4-4.61-5.54-7.26L24.03,65 C25.34,67.28,26.94,69.36,28.79,71.21z"/><path fill="#dce775" d="M24.03,65l-4.32,2.49c-1.51-2.62-2.69-5.45-3.49-8.44l4.81-1.29C21.7,60.33,22.72,62.76,24.03,65z"/><path fill="#ead032" d="M42.24,78.97l-1.29,4.8c-2.99-0.79-5.82-1.97-8.44-3.48L35,75.97 C37.24,77.28,39.67,78.3,42.24,78.97z"/><path fill="#f59173" d="M74.75,74.75c-2.16,2.15-4.61,4-7.26,5.54L65,75.97c2.28-1.31,4.36-2.91,6.21-4.76L74.75,74.75z"/><path fill="#f5905f" d="M67.49,80.29c-2.62,1.51-5.45,2.69-8.44,3.48l-1.28-4.8c2.56-0.67,4.99-1.69,7.23-3L67.49,80.29z"/><path fill="#f16e7c" d="M80.29,67.49c-1.54,2.65-3.39,5.1-5.54,7.26l-3.54-3.54c1.85-1.85,3.45-3.93,4.76-6.21L80.29,67.49 z"/><path fill="#fbb97f" d="M50,80v5c-3.14,0-6.16-0.45-9.05-1.23l1.29-4.8C44.72,79.65,47.32,80,50,80z"/><path fill="#eaa871" d="M59.05,83.77C56.16,84.55,53.14,85,50,85v-5c2.69,0,5.29-0.35,7.77-1.03L59.05,83.77z"/><path fill="#40a6dd" d="M42.23,21.03c-2.56,0.67-4.99,1.69-7.23,3l-2.49-4.32c2.62-1.51,5.45-2.69,8.44-3.49L42.23,21.03z"/><path fill="#c26dab" d="M83.77,40.95l-4.81,1.25c-0.67-2.55-1.69-4.97-2.99-7.2l4.32-2.49 C81.8,35.13,82.98,37.96,83.77,40.95z"/><path fill="#787ab5" d="M80.29,32.51L75.97,35c-1.31-2.28-2.91-4.36-4.76-6.21l3.54-3.54 C76.9,27.41,78.75,29.86,80.29,32.51z"/><path fill="#8789b9" d="M74.75,25.25l-3.54,3.54c-1.85-1.85-3.93-3.45-6.21-4.76l2.49-4.32 C70.14,21.25,72.59,23.1,74.75,25.25z"/><path fill="#78a1d1" d="M67.49,19.71L65,24.03c-2.24-1.31-4.67-2.33-7.24-3l1.29-4.8v-0.01 C62.04,17.02,64.87,18.2,67.49,19.71z"/><path fill="#ef6388" d="M85,50h-5c0-2.7-0.36-5.31-1.04-7.8l4.81-1.25C84.55,43.84,85,46.86,85,50z"/><path fill="#8cc78c" d="M21.03,42.24C20.35,44.72,20,47.32,20,50h-5c0-3.14,0.45-6.16,1.22-9.05L21.03,42.24z"/><path fill="#f05b6c" d="M85,50c0,3.14-0.45,6.16-1.23,9.05l-4.8-1.29C79.65,55.28,80,52.68,80,50H85z"/><path fill="#40a6dd" d="M59.05,16.23l-1.29,4.8C55.28,20.35,52.68,20,50,20v-5C53.14,15,56.16,15.45,59.05,16.23z"/><path fill="#52bea0" d="M28.79,28.79c-1.85,1.85-3.45,3.93-4.76,6.21l-4.32-2.49c1.54-2.65,3.39-5.1,5.54-7.26L28.79,28.79 z"/><path fill="#60bd91" d="M24.03,35c-1.31,2.24-2.33,4.67-3,7.24l-4.81-1.29c0.8-2.99,1.98-5.82,3.49-8.44L24.03,35z"/><path fill="#4db6ac" d="M35,24.03c-2.28,1.31-4.36,2.91-6.21,4.76l-3.54-3.54c2.16-2.15,4.61-4,7.26-5.54L35,24.03z"/><path fill="#449ae3" d="M50,15v5c-2.69,0-5.29,0.35-7.77,1.03l-1.28-4.81C43.84,15.45,46.86,15,50,15z"/></g><g><path fill="#1f212b" d="M50,86c-19.851,0-36-16.149-36-36s16.149-36,36-36s36,16.149,36,36S69.851,86,50,86z M50,16 c-18.748,0-34,15.252-34,34s15.252,34,34,34s34-15.252,34-34S68.748,16,50,16z"/><path fill="#1f212b" d="M65.5,24.227c-0.087,0-0.174-0.022-0.254-0.069c-0.638-0.376-1.3-0.734-1.969-1.066 c-0.247-0.123-0.348-0.423-0.226-0.671c0.124-0.248,0.426-0.347,0.671-0.226c0.689,0.343,1.373,0.714,2.031,1.102 c0.238,0.141,0.317,0.447,0.177,0.685C65.838,24.139,65.671,24.227,65.5,24.227z"/><path fill="#1f212b" d="M68.5,26.249c-0.106,0-0.213-0.033-0.304-0.103c-0.323-0.247-0.651-0.487-0.983-0.721 c-0.227-0.159-0.281-0.471-0.122-0.696c0.159-0.227,0.472-0.28,0.696-0.122c0.344,0.241,0.684,0.489,1.017,0.744 c0.22,0.168,0.261,0.481,0.094,0.701C68.799,26.182,68.65,26.249,68.5,26.249z"/><path fill="#1f212b" d="M50,81c-17.094,0-31-13.906-31-31s13.906-31,31-31c3.665,0,7.256,0.635,10.672,1.887 c0.26,0.096,0.393,0.383,0.298,0.642c-0.095,0.261-0.383,0.392-0.642,0.298C57.022,20.614,53.548,20,50,20 c-16.542,0-30,13.458-30,30s13.458,30,30,30s30-13.458,30-30c0-8.439-3.585-16.535-9.836-22.213 c-0.205-0.186-0.22-0.502-0.034-0.706c0.187-0.204,0.503-0.22,0.706-0.034C77.296,32.914,81,41.279,81,50 C81,67.094,67.094,81,50,81z"/><path fill="#1f212b" d="M36.267,67.993c-3.211,0-6.325-1.572-8.03-4.389c-1.212-2.002-1.548-4.345-0.944-6.597 c0.632-2.362,2.204-4.338,4.426-5.562c1.303-0.718,2.897-1.174,4.739-1.356c1.274-0.124,2.675-0.119,4.158,0.016 c3.344,0.306,6.325,1.178,7.451,1.538c0.315,0.1,0.583,0.307,0.75,0.583c0,0,0.001,0.001,0.001,0.002 c0.168,0.279,0.223,0.611,0.153,0.934c-0.235,1.107-0.93,3.991-2.313,6.892c-0.006,0.015-0.012,0.029-0.019,0.043 c-0.625,1.304-1.322,2.466-2.072,3.453c-1.092,1.434-2.305,2.523-3.607,3.241C39.479,67.605,37.861,67.993,36.267,67.993z M38.377,51c-0.633,0-1.242,0.028-1.822,0.086c-1.706,0.168-3.171,0.584-4.354,1.235c-1.981,1.092-3.381,2.848-3.942,4.944 c-0.532,1.987-0.236,4.055,0.832,5.821c2.279,3.761,7.385,5.03,11.388,2.827c1.181-0.649,2.288-1.648,3.291-2.97 c0.702-0.922,1.357-2.011,1.949-3.238c0.005-0.014,0.011-0.028,0.018-0.042c1.351-2.817,2.028-5.632,2.257-6.711 c0.021-0.095-0.006-0.166-0.031-0.209c-0.042-0.068-0.111-0.12-0.197-0.147c-1.097-0.352-3.994-1.199-7.239-1.495 C39.784,51.034,39.065,51,38.377,51z"/><path fill="#1f212b" d="M63.731,67.993c-1.594,0-3.211-0.388-4.691-1.202c-1.304-0.718-2.517-1.809-3.605-3.241 c-0.75-0.985-1.448-2.147-2.074-3.453c-1.395-2.916-2.095-5.82-2.331-6.936c-0.069-0.321-0.015-0.653,0.153-0.933 c0.168-0.278,0.436-0.485,0.753-0.585c1.124-0.36,4.105-1.232,7.448-1.538c1.484-0.135,2.883-0.14,4.159-0.016 c1.843,0.183,3.437,0.639,4.738,1.356c2.222,1.223,3.794,3.197,4.427,5.56c0.604,2.253,0.269,4.596-0.942,6.599 c-0.009,0.014-0.018,0.027-0.027,0.04C70.027,66.436,66.928,67.993,63.731,67.993z M61.623,51c-0.689,0-1.407,0.034-2.148,0.102 c-3.244,0.296-6.142,1.144-7.236,1.495c-0.088,0.027-0.158,0.08-0.199,0.147c-0.025,0.042-0.052,0.113-0.031,0.207 c0,0.001,0,0.001,0,0.002c0.229,1.079,0.906,3.893,2.256,6.711c0.594,1.241,1.255,2.345,1.966,3.28 c1.005,1.321,2.113,2.321,3.293,2.97c3.998,2.203,9.108,0.934,11.386-2.827c1.069-1.768,1.365-3.835,0.833-5.821 c-0.561-2.098-1.961-3.853-3.942-4.944c-1.183-0.651-2.647-1.067-4.354-1.235C62.864,51.028,62.256,51,61.623,51z"/><path fill="#1f212b" d="M50,50c-0.319,0-0.619-0.116-0.869-0.337c-1.901-1.673-8.107-7.599-8.107-13.602 c0-4.996,4.032-9.062,8.988-9.062h0.002C54.969,27.002,59,31.067,59,36.062c0,6.003-6.206,11.929-8.108,13.602 C50.65,49.877,50.324,50,50,50z M50.014,28c-4.406,0-7.99,3.616-7.99,8.062c0,5.583,5.946,11.248,7.769,12.852 c0.246,0.216,0.342,0.085,0.438,0C52.054,47.31,58,41.645,58,36.062C58,31.618,54.417,28.002,50.014,28L50.014,28z"/></g></svg>